<svg xmlns="http://www.w3.org/2000/svg" width="384" height="279" viewBox="0 0 384 279" fill="none">
<path d="M177.783 255.736H230.162C257.902 255.9 278.588 240.146 285.814 213.178L316.915 95.3253C323.462 69.1358 308.706 49.6382 284.178 49.4937L176.146 49.4937H118.856C80.4471 49.2674 46.9694 71.2059 36.964 108.546L1.00348 242.753C-4.76478 264.281 15.3013 283.673 36.4562 277.015L102.488 255.736H177.783Z" fill="#5027B1"/>
<rect x="200.699" y="101.873" width="52.379" height="52.379" rx="26.1895" fill="white"/>
<rect x="148.32" y="102.534" width="26.1895" height="52.379" rx="13.0948" fill="white"/>
<path d="M333.283 193.536C342.371 185.686 347.845 175.466 351.131 163.205L382.711 49.4937C389.101 25.6472 370.907 0.532828 346.379 0.388344L181.193 0.389815C161.747 0.275259 143.483 3.58615 128.89 14.9615L128.872 14.946L66.2793 65.6315C80.8623 55.0587 99.2146 49.378 118.857 49.4937L285.815 49.4937C285.864 49.5087 285.913 49.5238 285.961 49.5389C309.416 50.5967 323.302 69.7769 316.915 95.3253L285.815 213.178C283.146 223.14 278.64 231.571 272.62 238.235L333.283 193.536Z" fill="#9C78F2"/>
<path d="M283.878 229.94C289.271 223.409 293.336 215.337 295.813 205.918L326.736 93.6885C334.92 60.9516 310.273 39.8211 285.815 39.6744L129.338 39.6744C112.599 39.5739 96.8004 43.7735 83.4839 51.6998L66.2793 65.6315C80.8623 55.0587 99.2146 49.378 118.857 49.4937L285.815 49.4937L285.961 49.5389C309.416 50.5967 323.302 69.7769 316.915 95.3253L285.815 213.178C283.146 223.14 278.64 231.571 272.62 238.235L283.878 229.94Z" fill="white"/>
</svg>